<?xml version="1.0" encoding="UTF-8" standalone="no"?>
<svg
   width="147"
   height="24"
   viewBox="0 0 147 24"
   fill="none"
   version="1.1"
   id="svg10"
   sodipodi:docname="Turing logo.svg"
   inkscape:version="1.3.2 (091e20e, 2023-11-25)"
   xmlns:inkscape="http://www.inkscape.org/namespaces/inkscape"
   xmlns:sodipodi="http://sodipodi.sourceforge.net/DTD/sodipodi-0.dtd"
   xmlns="http://www.w3.org/2000/svg"
   xmlns:svg="http://www.w3.org/2000/svg">
  <defs
     id="defs10" />
  <sodipodi:namedview
     id="namedview10"
     pagecolor="#505050"
     bordercolor="#ffffff"
     borderopacity="1"
     inkscape:showpageshadow="0"
     inkscape:pageopacity="0"
     inkscape:pagecheckerboard="1"
     inkscape:deskcolor="#505050"
     inkscape:zoom="5.2993197"
     inkscape:cx="73.5"
     inkscape:cy="11.98267"
     inkscape:window-width="1366"
     inkscape:window-height="713"
     inkscape:window-x="0"
     inkscape:window-y="27"
     inkscape:window-maximized="1"
     inkscape:current-layer="svg10" />
  <path
     d="M28.2983 5.62365C27.6118 4.93151 26.4964 4.93151 25.8099 5.62365C25.707 5.72747 25.6383 5.81399 25.5697 5.93511C25.3638 6.26388 25.0205 6.45422 24.6258 6.45422H24.4028C24.0252 6.45422 23.6992 6.28118 23.4932 5.96972C23.4246 5.84859 23.3388 5.72747 23.2358 5.62365C23.1328 5.51983 23.0299 5.43331 22.9098 5.36409C22.5837 5.15645 22.3949 4.81038 22.3949 4.4297V4.22206C22.3949 3.82408 22.5837 3.49531 22.9098 3.27037C23.0127 3.20115 23.1157 3.11464 23.2187 3.02812C23.9051 2.33598 23.9051 1.21125 23.2187 0.519106C22.5322 -0.173035 21.4168 -0.173035 20.7303 0.519106C20.6274 0.622927 20.5587 0.709445 20.4901 0.830569C20.2841 1.15934 19.9409 1.34968 19.5462 1.34968H19.3231C18.9456 1.34968 18.6195 1.17664 18.4136 0.865177C18.345 0.744052 18.2592 0.622927 18.1562 0.519106C17.8645 0.224946 17.4698 0.0519106 17.0751 0.0173035C17.0236 0.0173035 16.9549 0.0173035 16.9035 0.0173035C16.4573 0.0173035 15.9939 0.190339 15.6507 0.536409C15.5306 0.657534 15.4276 0.813266 15.3418 0.951694C15.1359 1.21125 14.827 1.36698 14.4838 1.36698H14.2607C13.866 1.36698 13.5399 1.17664 13.3168 0.847873C13.2482 0.744052 13.1624 0.640231 13.0766 0.536409C12.6819 0.138428 12.1671 -0.0173036 11.6694 0.034607C11.2747 0.0692141 10.8972 0.242249 10.5883 0.536409C10.4853 0.640231 10.4166 0.726748 10.348 0.847873C10.1421 1.17664 9.79885 1.36698 9.40415 1.36698H9.18106C8.85501 1.36698 8.58043 1.24585 8.3745 1.02091C8.2887 0.847873 8.18573 0.692141 8.03129 0.553713C7.68807 0.207642 7.22473 0.034607 6.77854 0.034607C6.3152 0.034607 5.86902 0.207642 5.50864 0.553713C5.37135 0.692141 5.25123 0.865177 5.16542 1.02091C4.95949 1.24585 4.68492 1.36698 4.35886 1.36698H4.13577C3.74107 1.36698 3.41501 1.17664 3.19192 0.847873C3.17476 0.726748 3.08896 0.622927 3.00315 0.536409C2.31672 -0.155732 1.20126 -0.155732 0.514826 0.536409C-0.171609 1.22855 -0.171609 2.35328 0.514826 3.04542C1.20126 3.73756 2.31672 3.73756 3.00315 3.04542C3.10612 2.9416 3.17476 2.85508 3.2434 2.73396C3.44933 2.40519 3.79255 2.21485 4.18725 2.21485H4.41034C4.7364 2.21485 5.01097 2.33598 5.2169 2.56092C5.30271 2.73396 5.40567 2.88969 5.56012 3.02812C5.69741 3.16655 5.85186 3.28767 6.02346 3.35688C6.28088 3.56453 6.41816 3.87599 6.41816 4.20476V4.3951C6.41816 4.79308 6.22939 5.12185 5.90334 5.34679C5.80037 5.41601 5.69741 5.50252 5.59444 5.58904C4.90801 6.28118 4.90801 7.40591 5.59444 8.09805C6.28088 8.79019 7.39633 8.79019 8.08277 8.09805C8.18573 7.99423 8.25438 7.90771 8.32302 7.78659C8.52895 7.45782 8.87217 7.26748 9.26687 7.26748H9.48996C9.81602 7.26748 10.0906 7.38861 10.2965 7.61355C10.3308 7.68277 10.3652 7.75198 10.4166 7.8212C10.4853 7.92502 10.5539 8.02884 10.6569 8.11536C10.7599 8.21918 10.8457 8.28839 10.9658 8.3576C11.2919 8.56525 11.4806 8.91132 11.4806 9.3093V9.53425C11.4806 9.93223 11.2919 10.261 10.9658 10.4859C10.8628 10.5552 10.7599 10.6417 10.6569 10.7282C10.2622 11.1262 10.1078 11.6453 10.1592 12.1471C10.1936 12.5451 10.3652 12.9257 10.6569 13.2372C10.7599 13.341 10.8457 13.4102 10.9658 13.4795C11.2919 13.6871 11.4806 14.0332 11.4806 14.4311V14.6561C11.4806 15.0541 11.2919 15.3828 10.9658 15.6078C10.8628 15.677 10.7599 15.7635 10.6569 15.85C10.2622 16.248 10.1078 16.7671 10.1592 17.2689C10.1936 17.6669 10.3652 18.0476 10.6569 18.359C10.7599 18.4629 10.8457 18.5321 10.9658 18.6013C11.2919 18.8089 11.4806 19.155 11.4806 19.553V19.7779C11.4806 20.1759 11.2919 20.5047 10.9658 20.7296C10.8628 20.7988 10.7599 20.8854 10.6569 20.9719C9.97046 21.664 9.97046 22.7888 10.6569 23.4809C11.3433 24.173 12.4588 24.173 13.1452 23.4809C13.8317 22.7888 13.8317 21.664 13.1452 20.9719C13.0423 20.8681 12.9565 20.7988 12.8363 20.7296C12.5103 20.522 12.3215 20.1759 12.3215 19.7779V19.553C12.3215 19.155 12.5103 18.8262 12.8363 18.6013C12.9393 18.5321 13.0423 18.4456 13.1452 18.359C13.2482 18.2552 13.3168 18.1687 13.3855 18.0476C13.5914 17.7188 13.9346 17.5285 14.3293 17.5285H14.5181C14.9128 17.5285 15.2388 17.7188 15.4619 18.0476C15.5306 18.1514 15.6164 18.2552 15.7022 18.359C16.3886 19.0512 17.5041 19.0512 18.1905 18.359C18.877 17.6669 18.877 16.5422 18.1905 15.85C18.0876 15.7462 18.0017 15.677 17.8816 15.6078C17.5556 15.4001 17.3668 15.0541 17.3668 14.6561V14.4311C17.3668 14.0332 17.5556 13.7044 17.8816 13.4795C17.9846 13.4102 18.0876 13.3237 18.1905 13.2372C18.5337 12.8911 18.7053 12.4412 18.7053 11.9913C18.7053 11.5415 18.5337 11.0743 18.1905 10.7282C18.0876 10.6244 18.0017 10.5552 17.8816 10.4859C17.5556 10.2783 17.3668 9.93223 17.3668 9.53425V9.3093C17.3668 8.91132 17.5556 8.58255 17.8816 8.3576C17.9846 8.28839 18.0876 8.20187 18.1905 8.11536C18.2935 8.01153 18.3793 7.89041 18.4479 7.76929C18.6539 7.44052 18.9971 7.25018 19.3746 7.25018H19.5977C19.9752 7.25018 20.3013 7.42321 20.5072 7.73468C20.5759 7.8558 20.6617 7.97693 20.7646 8.08075C21.1079 8.42682 21.5541 8.59985 22.0174 8.59985C22.4636 8.59985 22.9098 8.42682 23.253 8.08075C23.3559 7.97693 23.4417 7.8558 23.5104 7.73468C23.7163 7.42321 24.0424 7.25018 24.4199 7.25018H24.643C25.0377 7.25018 25.3638 7.44052 25.5869 7.76929C25.6555 7.87311 25.7413 7.97693 25.8271 8.08075C26.5135 8.77289 27.629 8.77289 28.3154 8.08075C28.9847 7.44052 28.9847 6.31579 28.2983 5.62365ZM11.4291 4.4297C11.4291 4.82769 11.2404 5.15645 10.9143 5.3814C10.8113 5.45061 10.7084 5.53713 10.6054 5.62365C10.5025 5.72747 10.3995 5.84859 10.3308 5.98702C10.3308 5.98702 10.3308 6.00432 10.3137 6.00432C10.2794 6.05624 10.1936 6.17736 10.0219 6.29848C9.85034 6.40231 9.66157 6.45422 9.45564 6.45422H9.23255C8.83785 6.45422 8.51179 6.26388 8.2887 5.93511C8.22006 5.83129 8.13425 5.72747 8.04845 5.62365C7.94548 5.51983 7.85968 5.45061 7.73955 5.3814C7.41349 5.17376 7.22472 4.82769 7.22472 4.4297V4.22206C7.22472 3.82408 7.41349 3.49531 7.73955 3.27037C7.84252 3.20115 7.94548 3.11464 8.04845 3.02812C8.18573 2.88969 8.30586 2.71665 8.39166 2.56092C8.59759 2.33598 8.87217 2.21485 9.19822 2.21485H9.42132C9.81602 2.21485 10.1421 2.40519 10.3652 2.73396C10.4338 2.83778 10.5196 2.9416 10.6054 3.04542C10.7084 3.14924 10.7942 3.21846 10.9143 3.28767C11.2404 3.49531 11.4291 3.84138 11.4291 4.23937V4.4297ZM15.9768 15.6251C15.8738 15.6943 15.7708 15.7808 15.6679 15.8673C15.5649 15.9712 15.4963 16.0577 15.4276 16.1788C15.2217 16.5076 14.8785 16.6979 14.4838 16.6979H14.2778C13.8831 16.6979 13.5571 16.5076 13.3512 16.1788C13.2825 16.0577 13.1967 15.9539 13.1109 15.8673C13.0079 15.7635 12.9221 15.6943 12.802 15.6251C12.476 15.4174 12.2872 15.0714 12.2872 14.6734V14.4484C12.2872 14.0505 12.476 13.7217 12.802 13.4968C12.905 13.4275 13.0079 13.341 13.1109 13.2545C13.2139 13.1507 13.2825 13.0642 13.3512 12.943C13.5571 12.6143 13.9003 12.4239 14.295 12.4239H14.4838C14.8785 12.4239 15.2045 12.6143 15.4105 12.943C15.4791 13.0469 15.5649 13.168 15.6507 13.2545C15.7537 13.3583 15.8395 13.4275 15.9596 13.4968C16.2857 13.7044 16.4744 14.0505 16.4744 14.4484V14.6734C16.4916 15.0887 16.3028 15.4174 15.9768 15.6251ZM15.9768 10.5205C15.8738 10.5898 15.7708 10.6763 15.6679 10.7628C15.5649 10.8666 15.4963 10.9531 15.4276 11.0743C15.2217 11.403 14.8785 11.5934 14.4838 11.5934H14.2778C13.8831 11.5934 13.5571 11.403 13.3512 11.0743C13.2825 10.9531 13.1967 10.8493 13.0937 10.7628C12.9908 10.659 12.905 10.5898 12.7848 10.5205C12.4588 10.3129 12.27 9.96683 12.27 9.56885V9.34391C12.27 8.94593 12.4588 8.61716 12.7848 8.39221C12.8878 8.323 12.9908 8.23648 13.0937 8.14996C13.1281 8.11536 13.1624 8.08075 13.1967 8.02884C13.2654 7.94232 13.334 7.87311 13.3855 7.76929C13.5914 7.47512 13.9175 7.30209 14.2778 7.30209H14.4666C14.8613 7.30209 15.1874 7.49243 15.3933 7.8212C15.4619 7.94232 15.5477 8.04614 15.6507 8.13266C15.7537 8.23648 15.8395 8.30569 15.9596 8.37491C16.2857 8.58255 16.4744 8.92862 16.4744 9.3266V9.55155C16.4916 9.96683 16.3028 10.2956 15.9768 10.5205ZM16.3028 5.08724C16.217 5.19106 16.1141 5.29488 15.9939 5.36409C15.8738 5.43331 15.7708 5.51983 15.685 5.62365C15.5821 5.72747 15.5134 5.81399 15.4448 5.93511C15.2388 6.26388 14.8956 6.45422 14.5009 6.45422H14.2778C14.0033 6.45422 13.763 6.3677 13.5742 6.21197C13.5056 6.14275 13.437 6.03893 13.4026 5.98702C13.4026 5.96972 13.3855 5.96972 13.3855 5.95241V5.93511C13.3168 5.83129 13.231 5.72747 13.1452 5.62365C13.0079 5.48522 12.8535 5.3814 12.6819 5.29488C12.4245 5.08724 12.2872 4.77577 12.2872 4.4297V4.22206C12.2872 3.82408 12.476 3.49531 12.802 3.28767C12.9221 3.21846 13.0251 3.13194 13.1109 3.02812C13.2139 2.9243 13.2825 2.83778 13.3512 2.71665C13.5571 2.38789 13.9003 2.19755 14.295 2.19755H14.5181C14.8613 2.19755 15.1702 2.33598 15.3761 2.61283C15.4619 2.76856 15.5649 2.90699 15.685 3.02812C15.788 3.13194 15.8738 3.20115 15.9939 3.27037C16.32 3.47801 16.5088 3.82408 16.5088 4.22206V4.44701C16.4916 4.68926 16.423 4.9142 16.3028 5.08724ZM21.5712 4.4297C21.5712 4.82769 21.3824 5.15645 21.0564 5.3814C20.9534 5.45061 20.8505 5.53713 20.7475 5.62365C20.6445 5.72747 20.5587 5.84859 20.4901 5.96972C20.2841 6.28118 19.9581 6.45422 19.5805 6.45422H19.3575C18.9628 6.45422 18.6367 6.26388 18.4136 5.93511C18.345 5.83129 18.2592 5.72747 18.1734 5.62365C18.0704 5.51983 17.9846 5.45061 17.8645 5.3814C17.5384 5.17376 17.3496 4.82769 17.3496 4.4297V4.22206C17.3496 3.82408 17.5384 3.49531 17.8645 3.27037C17.9674 3.20115 18.0704 3.11464 18.1734 3.02812C18.2763 2.9243 18.3621 2.80317 18.4308 2.68205C18.6367 2.37058 18.9628 2.19755 19.3403 2.19755H19.5634C19.9581 2.19755 20.2841 2.38789 20.5072 2.71665C20.5759 2.82048 20.6617 2.9243 20.7475 3.02812C20.8505 3.13194 20.9363 3.20115 21.0564 3.27037C21.3824 3.47801 21.5712 3.82408 21.5712 4.22206V4.4297Z"
     fill="white"
     id="path1"
     style="fill:#000000" />
  <path
     d="M1.49533 7.85447C2.04504 7.85447 2.49066 7.40514 2.49066 6.85086C2.49066 6.29659 2.04504 5.84726 1.49533 5.84726C0.945624 5.84726 0.5 6.29659 0.5 6.85086C0.5 7.40514 0.945624 7.85447 1.49533 7.85447Z"
     fill="white"
     id="path2"
     style="fill:#000000" />
  <path
     d="M16.7649 23.2383C17.3146 23.2383 17.7602 22.789 17.7602 22.2347C17.7602 21.6804 17.3146 21.2311 16.7649 21.2311C16.2152 21.2311 15.7695 21.6804 15.7695 22.2347C15.7695 22.789 16.2152 23.2383 16.7649 23.2383Z"
     fill="white"
     id="path3"
     style="fill:#000000" />
  <path
     d="M26.9738 2.64899C27.5236 2.64899 27.9692 2.19966 27.9692 1.64539C27.9692 1.09111 27.5236 0.641785 26.9738 0.641785C26.4241 0.641785 25.9785 1.09111 25.9785 1.64539C25.9785 2.19966 26.4241 2.64899 26.9738 2.64899Z"
     fill="white"
     id="path4"
     style="fill:#000000" />
  <path
     d="M59.0831 7.35822H52.9396V19.1246H50.1252V7.35822H43.9473V4.90112H59.0831V7.35822Z"
     fill="white"
     id="path5"
     style="fill:#000000" />
  <path
     d="M62.7207 12.134V4.90112H65.5179V12.1513C65.5179 15.7331 67.4399 16.979 70.3573 16.979C73.0687 16.979 75.0594 15.7331 75.0594 12.1686V4.90112H77.8737V12.134C77.8737 17.3078 75.0937 19.488 70.3573 19.488C65.5866 19.488 62.7207 17.3078 62.7207 12.134Z"
     fill="white"
     id="path6"
     style="fill:#000000" />
  <path
     d="M91.2223 14.3662H85.8852V19.1246H83.1738V4.90112H92.1661C95.7013 4.90112 97.6404 6.07776 97.6404 9.48656C97.6404 11.9437 96.4392 13.5356 94.2083 14.1412L98.1381 19.1246H94.8604L91.2223 14.3662ZM85.8852 11.9783H91.943C93.6934 11.9783 94.8432 11.1996 94.8432 9.48656C94.8432 7.79081 93.6934 7.35822 91.943 7.35822H85.8852V11.9783Z"
     fill="white"
     id="path7"
     style="fill:#000000" />
  <path
     d="M102.311 4.90112H105.091V19.1246H102.311V4.90112Z"
     fill="white"
     id="path8"
     style="fill:#000000" />
  <path
     d="M125.735 4.90112V19.1246H122.955L113.722 8.7252V19.1246H110.977V4.90112H113.757L122.989 15.2832V4.90112H125.735Z"
     fill="white"
     id="path9"
     style="fill:#000000" />
  <path
     d="M146.999 11.4427V17.3085C145.335 18.7101 142.64 19.4888 139.071 19.4888C133.717 19.4888 130.662 17.3085 130.662 12.4116V11.6157C130.662 6.73609 133.734 4.55585 139.019 4.55585C142.349 4.55585 144.768 5.2999 146.896 7.39363L145.112 9.53926C143.739 7.91273 141.748 7.06486 139.002 7.06486C135.742 7.06486 133.459 8.29341 133.459 11.5811V12.429C133.459 15.7166 135.742 16.9798 139.431 16.9798C142.126 16.9798 143.395 16.4434 144.185 15.8551V13.5883H137.115V11.4427H146.999Z"
     fill="white"
     id="path10"
     style="fill:#000000" />
</svg>
