<svg xmlns="http://www.w3.org/2000/svg" width="80" height="26.286" viewBox="0 0 80 26.286">
  <path id="Turing" d="M235.381,457.975h5.9v-3.8H225.425v3.8h5.9v15.184h4.058V457.975Zm6.143,2.248v8.119a5.9,5.9,0,0,0,.306,1.917,5.121,5.121,0,0,0,.9,1.616,4.032,4.032,0,0,0,1.545,1.13,5.418,5.418,0,0,0,2.17.414,4.315,4.315,0,0,0,3.74-1.87h.037v1.609h3.862V460.223h-3.911v7.208a2.614,2.614,0,0,1-.613,1.781,2.244,2.244,0,0,1-1.79.7,2.18,2.18,0,0,1-1.753-.674,2.7,2.7,0,0,1-.576-1.811v-7.208Zm23.405-.142a4.258,4.258,0,0,0-2.029.485,3.4,3.4,0,0,0-1.441,1.539h-.037v-1.882h-3.715v12.936h3.838V467.49a3.885,3.885,0,0,1,.87-2.716,2.989,2.989,0,0,1,2.317-.953,7.038,7.038,0,0,1,1.25.095v-3.7a4.29,4.29,0,0,0-1.054-.13Zm5.333-2.036a2.434,2.434,0,0,0,1.747-.686,2.286,2.286,0,0,0,0-3.326,2.434,2.434,0,0,0-1.747-.686,2.342,2.342,0,0,0-1.692.692,2.293,2.293,0,0,0,0,3.32,2.353,2.353,0,0,0,1.692.686Zm2,2.178v12.936h-3.923V460.223Zm16.184,12.936v-8.048a6.347,6.347,0,0,0-.288-1.935,5.17,5.17,0,0,0-.858-1.633,3.931,3.931,0,0,0-1.521-1.154,5.294,5.294,0,0,0-2.188-.426,4.34,4.34,0,0,0-.68.065,8.554,8.554,0,0,0-1,.243,3.792,3.792,0,0,0-1.177.6,3.447,3.447,0,0,0-.932,1.03h-.037v-1.681h-3.874v12.936h3.9v-7.184a2.649,2.649,0,0,1,.619-1.787,2.238,2.238,0,0,1,1.8-.722,2.163,2.163,0,0,1,1.747.686,2.722,2.722,0,0,1,.582,1.823v7.184Zm13.119-12.936v1.562h-.049a4.844,4.844,0,0,0-1.073-.935,4.515,4.515,0,0,0-1.171-.545,7.536,7.536,0,0,0-.993-.225,5.789,5.789,0,0,0-.809-.059,6.072,6.072,0,0,0-2.618.568,5.943,5.943,0,0,0-2.011,1.5,7.17,7.17,0,0,0-1.257,2.113,6.676,6.676,0,0,0-.453,2.42,6.85,6.85,0,0,0,.8,3.3,6.01,6.01,0,0,0,2.293,2.367,6.534,6.534,0,0,0,3.378.876,4.652,4.652,0,0,0,3.862-1.728h.049v1.479a3.8,3.8,0,0,1-.294,1.544,2.742,2.742,0,0,1-.8,1.071,3.564,3.564,0,0,1-1.147.6,4.519,4.519,0,0,1-1.361.2,3.107,3.107,0,0,1-2.1-.692,2.926,2.926,0,0,1-1-1.686l-3.617,1.006a4.631,4.631,0,0,0,.724,1.734,6.4,6.4,0,0,0,1.4,1.485,6.62,6.62,0,0,0,2.084,1.053,8.787,8.787,0,0,0,2.667.391,9.07,9.07,0,0,0,2.943-.456,6.77,6.77,0,0,0,2.323-1.326,5.826,5.826,0,0,0,1.539-2.243,8.294,8.294,0,0,0,.552-3.113V460.223Zm-.883,8.735a3.226,3.226,0,0,1-2.33.911,3.193,3.193,0,0,1-2.317-.905,3.367,3.367,0,0,1,.012-4.663,3.4,3.4,0,0,1,4.641-.006,3.359,3.359,0,0,1-.006,4.663Z" transform="translate(-225.425 -453.347)" fill="#151515" fill-rule="evenodd"/>
</svg>
