<svg viewBox="0 0 512 512" xmlns="http://www.w3.org/2000/svg"><rect fill="#fff" height="512" rx="15%" width="512"/><path d="m407.7 397.3 20.86-257.7-80.54 157.4-196 118c80.86-5.675 171.2-11.87 255.7-17.66z" fill="#a00403"/><path d="m423.39 178.977-103.39-80.977-27 93c109.797 9.317 91.763-9.646 130.39-12.023zm-231.39 103.023 136 43-35-134zm-89 19c44 139 55 169 89-19l-90 21zm173-233 97 1-53 29c-11-7-36-24-44-30zm-191 178-4 99 23-43zm213-161c26 26-1 89-53 140s-118 83-144 57c-25-25.89.7-90 52.85-141s119.2-82 144.2-56z" fill="#b11205"/><path d="m192 282 133 43c-48 45-137.5 86.5-173 90z" fill="#9f0d02"/><path d="m293 191 33 133c40-42 76-88 94-144zm114.7 206.3-20.68-152.3-61.02 79z" fill="#891102"/><path d="m421 181c13-41 16-101-48-112l-53 29z" fill="#aa1401"/><path d="m81 345c2 68 50 69 71 70l-49-113z" fill="#9e1209"/><path d="m192 282 54 103c32-17 57-38 79-61z" fill="#900e04"/><path d="m103 302-8 91c14 20 34 21 55 20-15-37-45-112-47-111z" fill="#8b1104"/></svg>