<?xml version="1.0" encoding="UTF-8"?>
<svg xmlns="http://www.w3.org/2000/svg" viewBox="0 0 132.27 142.13">
  <defs>
    <style>.cls-1{fill:#bea429;}.cls-2{fill:#1b2c57;}</style>
  </defs>
  <title>Asset 1</title>
  <g id="Layer_2" data-name="Layer 2">
    <g id="Layer_1-2" data-name="Layer 1">
      <polygon class="cls-1" points="0.1 35.98 115.46 35.98 94.41 31.94 106.58 29.63 87.72 28.16 100.7 23.15 80.34 25.66 92.22 17.29 78.01 20.36 85.25 11.57 69.94 17.01 73.63 5.44 62.7 16.03 57.77 0 54.22 15.76 42.06 4.88 44.93 16.59 27.84 11.15 36.87 20.36 19.64 16.74 28.39 24.68 8.97 22.31 20.19 27.61 4.33 27.19 15.95 32.35 0.1 35.98"></polygon>
      <path class="cls-2" d="M13,64c0-7.28-.15-18-.36-20.14-1.71-.32-5.89-.94-7.59-1.09l-.2-1.63c1.42.16,9.55.31,12.46.31,2.62,0,10.27-.15,11.61-.31l-.29,1.63c-.85.15-5.59.77-7.21,1.09-.3,2.48-.36,14.48-.36,20.84v2.41c4.6-4.42,20.67-19.46,22.72-23.25a43.29,43.29,0,0,0-5.24-1.09l-.28-1.63c3,.16,8,.31,10.76.31,2.06,0,5.32-.15,7.72-.31l-.43,1.63a31,31,0,0,0-4.67.93c-3,1.78-16.21,13.87-19.18,16.82,2.77,4.8,23.15,32.85,26.82,36.57l-2.4.85C51.32,95.6,27.46,68.86,25.47,66.54c-1.33,1.08-3.53,3.1-4.45,4v1.86c0,6.74.06,17.59.36,20.46,1.83.85,7,1.31,8.06,1.46L29.59,96c-1.35-.16-8.85-.31-12.68-.31-3.32,0-10,.15-12.1.31l.28-1.64a62.56,62.56,0,0,0,7.51-1.07c.21-3.41.36-13.79.36-24.88Z"></path>
      <path class="cls-1" d="M85.12,40c4.79,0,14.9,1.76,14.9,4.71S96.6,48.36,95,48.36,87,42.78,79.37,42.78,58.46,48.36,58.46,65.65s14.21,28,26.25,28c10.11,0,13.8-3.62,17.08-5.16-1.64,4-10,8.79-18.31,8.79-5.27,0-13.82-.33-21.32-5.17A26.84,26.84,0,0,1,49.71,69.52,28.73,28.73,0,0,1,63,45.23C70.69,40.36,79.83,40,85.12,40"></path>
      <path class="cls-2" d="M98.51,62.73s-2.05-8.37-3.27-12.27a33.72,33.72,0,0,0,6.55-4.33s.8.79,2.33,5.71C107.81,63.7,115.74,82.25,118.61,87s3.41,6,5.2,6,4.36-3.49,4.36-3.49,0,1.4-2.58,4.18-5.21,6.83-7.53,6.83-4.23-1.39-13-20.78c-7,.43-14.77,4.47-17.64,6.83-3.28,5.18-7.51,12.15-8.2,12.56a8.15,8.15,0,0,1-2.46.56l8.34-12s-3.55.55-4.24,1.25c1.64-3.07,5.46-5.29,7.11-6.13C89.49,79,98.51,62.73,98.51,62.73M90.26,81.41c4-2,13.79-5.66,13.79-5.66L99.47,65c-3.14,4.6-3.06,4-9.21,16.46"></path>
      <rect class="cls-1" y="104.69" width="132.27" height="1.11"></rect>
      <rect class="cls-1" y="129.24" width="132.21" height="1.11"></rect>
      <path class="cls-2" d="M2.45,115.55c0-3.46,0-4.08,0-4.79s-.19-1.11-.85-1.26a2.81,2.81,0,0,0-.65-.07c-.09,0-.17-.05-.17-.13s.1-.18.31-.18c.88,0,2.09.06,2.26.06s1.35-.06,1.95-.06c.2,0,.31,0,.31.18a.15.15,0,0,1-.16.13,2.26,2.26,0,0,0-.49.07c-.52.09-.69.49-.73,1.26s0,1.33,0,4.79v3.11c0,3.17.64,4.55,1.48,5.46a3.6,3.6,0,0,0,3,1.22,4,4,0,0,0,3.07-1.59c.91-1.27,1.14-3.15,1.14-5.43v-2.77c0-3.46,0-4.08,0-4.79s-.19-1.11-.84-1.26a2.9,2.9,0,0,0-.68-.07c-.06,0-.15-.05-.15-.13s.11-.18.32-.18c.88,0,2,.06,2.07.06s1.07-.06,1.65-.06c.23,0,.31,0,.31.18a.14.14,0,0,1-.15.13,2.34,2.34,0,0,0-.49.07c-.53.13-.69.49-.73,1.26s0,1.33,0,4.79v2.37c0,2.38-.24,5-1.81,6.62a5.33,5.33,0,0,1-4,1.64,5.61,5.61,0,0,1-4-1.57c-1-1-1.7-2.59-1.7-5.82Z"></path>
      <path class="cls-2" d="M19.7,122.86c.05,1.82.23,2.39.77,2.57a3.8,3.8,0,0,0,1,.13c.1,0,.15,0,.15.14s-.11.18-.35.18c-1.12,0-1.9-.07-2.08-.07s-1,.07-1.88.07c-.19,0-.32,0-.32-.18s.06-.14.17-.14a2.42,2.42,0,0,0,.79-.13c.49-.15.59-.79.59-2.81l0-12.7c0-.86.06-1.11.21-1.11s.49.49.69.71c.3.38,3.22,4,6.24,7.6,1.93,2.35,4.08,5,4.7,5.79l-.21-11.26c0-1.44-.16-1.93-.76-2.11a4.57,4.57,0,0,0-1-.11c-.13,0-.15-.06-.15-.16s.15-.15.39-.15c.88,0,1.83.06,2,.06s.86-.06,1.67-.06c.22,0,.35,0,.35.15s-.08.16-.22.16a1.51,1.51,0,0,0-.47.07c-.64.15-.73.63-.73,2l0,13c0,1.45-.05,1.57-.18,1.57s-.39-.25-1.43-1.42c-.22-.22-3-3.47-5.12-6-2.28-2.76-4.49-5.56-5.12-6.36Z"></path>
      <path class="cls-2" d="M38.13,119.44c0,2.13,0,3.88.1,4.82.06.64.18,1.12.76,1.21a6.68,6.68,0,0,0,.89.09.14.14,0,0,1,.16.14c0,.11-.1.18-.32.18-1.08,0-2.32-.07-2.41-.07s-1.34.07-1.93.07c-.21,0-.3,0-.3-.18s0-.14.14-.14a2.42,2.42,0,0,0,.6-.09c.39-.09.48-.57.56-1.21.1-.94.1-2.69.1-4.82v-3.89c0-3.46,0-4.08,0-4.79s-.24-1.13-.67-1.24a2.24,2.24,0,0,0-.61-.09.15.15,0,0,1-.16-.13c0-.14.09-.18.32-.18.64,0,1.88.06,2,.06s1.33-.06,1.91-.06c.23,0,.32,0,.32.18a.14.14,0,0,1-.15.13,2.26,2.26,0,0,0-.49.07c-.54.1-.69.49-.73,1.26s0,1.33,0,4.79Z"></path>
      <path class="cls-2" d="M49.37,123.17c1.14-3,3.78-10.71,4.2-12.31a3.29,3.29,0,0,0,.18-.83.54.54,0,0,0-.26-.51,2.12,2.12,0,0,0-.74-.09c-.11,0-.21,0-.21-.13s.11-.18.43-.18c.78,0,1.69.06,1.92.06s1-.06,1.53-.06c.22,0,.34,0,.34.15s-.08.16-.24.16a1.58,1.58,0,0,0-.94.27c-.25.2-.55.57-1.08,2.09-.22.6-1.2,3.28-2.2,6-1.2,3.23-2.09,5.63-2.53,6.72-.55,1.33-.63,1.68-.83,1.68s-.33-.3-.7-1.38l-4.81-13.57C43,110,42.7,109.74,42,109.52a2.72,2.72,0,0,0-.75-.09.14.14,0,0,1-.16-.16c0-.12.2-.15.52-.15.94,0,2,.06,2.28.06s1.09-.06,1.84-.06c.35,0,.53,0,.53.15s-.07.16-.21.16a2,2,0,0,0-.73.11.45.45,0,0,0-.26.45,9.14,9.14,0,0,0,.53,1.83Z"></path>
      <path class="cls-2" d="M59.68,115.55c0-3.46,0-4.08,0-4.79s-.2-1.11-.85-1.26a2.78,2.78,0,0,0-.66-.07c-.08,0-.17-.05-.17-.13s.11-.18.32-.18c.46,0,1,0,1.42,0l.8,0c.14,0,4,0,4.49,0a4.25,4.25,0,0,0,.85-.1c.1,0,.18-.11.27-.11s.08.08.08.2-.1.42-.15,1c0,.22-.06,1.21-.1,1.47,0,.1-.06.24-.14.24s-.15-.1-.15-.29a3,3,0,0,0-.12-.8c-.14-.35-.34-.62-1.4-.75-.33,0-2.47-.07-2.68-.07s-.12.07-.12.23v6.11c0,.16,0,.22.12.22s2.67,0,3.11,0,.75-.09.92-.31.22-.29.3-.29.1,0,.1.18-.1.51-.16,1.25c0,.43-.07,1.26-.07,1.41s0,.42-.14.42-.15-.09-.15-.2a2.8,2.8,0,0,0-.07-.73c-.08-.31-.25-.69-1-.78-.53-.06-2.48-.11-2.81-.11-.1,0-.13.07-.13.16v1.94c0,.76,0,3.33,0,3.8.05,1.53.34,1.81,2.27,1.81a4.86,4.86,0,0,0,1.88-.25c.52-.23.75-.68.89-1.59,0-.24.08-.33.18-.33s.11.18.11.33-.16,1.69-.25,2.16-.3.58-1.06.58c-1.47,0-2.55,0-3.31-.07s-1.25-.07-1.54-.07l-.79,0c-.39,0-.84,0-1.13,0s-.32,0-.32-.18a.14.14,0,0,1,.16-.14,3,3,0,0,0,.59-.08c.39-.1.49-.58.56-1.22.11-.94.11-2.69.11-4.82Z"></path>
      <path class="cls-2" d="M71.64,115.55c0-3.46,0-4.08,0-4.79s-.2-1.11-.85-1.26a2.87,2.87,0,0,0-.67-.07.14.14,0,0,1-.15-.13c0-.14.1-.18.31-.18.88,0,2.12.06,2.21.06s1.71-.06,2.33-.06a5.52,5.52,0,0,1,3.59,1,4.09,4.09,0,0,1,1.35,3,7.16,7.16,0,0,1-2.38,5.12c1.61,2.33,3,4.3,4.09,5.67a4,4,0,0,0,2.4,1.6,4.53,4.53,0,0,0,.76.06.17.17,0,0,1,.17.14c0,.13-.12.18-.46.18h-1.4a3.6,3.6,0,0,1-2.1-.43c-.84-.51-1.53-1.59-2.64-3.26-.83-1.22-1.76-2.71-2.15-3.28a.33.33,0,0,0-.25-.13l-2.42,0c-.09,0-.13.07-.13.17v.53c0,2.13,0,3.88.09,4.82,0,.64.18,1.12.77,1.21a6.68,6.68,0,0,0,.89.09.13.13,0,0,1,.14.14c0,.11-.1.18-.31.18-1.07,0-2.31-.07-2.41-.07s-1.26.07-1.84.07c-.22,0-.32,0-.32-.18a.13.13,0,0,1,.15-.14,2.42,2.42,0,0,0,.6-.09c.4-.09.48-.57.57-1.21.09-.94.09-2.69.09-4.82Zm1.58,1.93a.28.28,0,0,0,.13.25,4.68,4.68,0,0,0,2.06.37,2.32,2.32,0,0,0,1.48-.43,4.31,4.31,0,0,0,1.2-3.41c0-2.77-1.3-4.43-3.4-4.43a5.91,5.91,0,0,0-1.33.13.27.27,0,0,0-.14.27Z"></path>
      <path class="cls-2" d="M87,125.59c-.28-.16-.3-.25-.3-.86,0-1.09.09-2,.1-2.33s.06-.35.16-.35.14.06.14.24a5.11,5.11,0,0,0,0,.81A2.73,2.73,0,0,0,90,125.37a2.8,2.8,0,0,0,2.81-3c0-1.54-.57-2.42-2.26-4l-.88-.81c-2.08-1.93-2.55-3.3-2.55-4.81a3.78,3.78,0,0,1,4.06-4A6.5,6.5,0,0,1,93,109a3.11,3.11,0,0,0,.69.12c.16,0,.19,0,.19.15s-.07.83-.07,2.35c0,.35,0,.51-.14.51s-.13-.11-.16-.29a4.16,4.16,0,0,0-.25-1.11c-.12-.24-.65-1.17-2.46-1.17a2.36,2.36,0,0,0-2.4,2.57c0,1.26.5,2.06,2.39,3.72l.54.49c2.32,2,2.86,3.42,2.86,5.2a4.82,4.82,0,0,1-1.66,3.68,4.76,4.76,0,0,1-3,.93,5.4,5.4,0,0,1-2.63-.59"></path>
      <path class="cls-2" d="M101.05,119.44c0,2.13,0,3.88.1,4.82,0,.64.17,1.12.76,1.21a6.55,6.55,0,0,0,.88.09c.12,0,.16.07.16.14s-.1.18-.31.18c-1.08,0-2.32-.07-2.42-.07s-1.33.07-1.92.07c-.21,0-.32,0-.32-.18s0-.14.16-.14a2.34,2.34,0,0,0,.59-.09c.39-.09.49-.57.57-1.21.09-.94.09-2.69.09-4.82v-3.89c0-3.46,0-4.08,0-4.79s-.24-1.13-.67-1.24a2.17,2.17,0,0,0-.6-.09c-.09,0-.16-.05-.16-.13s.09-.18.31-.18c.65,0,1.88.06,2,.06s1.34-.06,1.92-.06c.22,0,.32,0,.32.18a.14.14,0,0,1-.15.13,2.25,2.25,0,0,0-.5.07c-.53.1-.68.48-.73,1.26s0,1.33,0,4.79Z"></path>
      <path class="cls-2" d="M112.21,119.44c0,2.13,0,3.88.1,4.82.06.64.18,1.12.77,1.21a6.42,6.42,0,0,0,.87.09c.12,0,.16.07.16.14s-.09.18-.31.18c-1.09,0-2.32-.07-2.41-.07s-1.34.07-1.92.07c-.23,0-.32,0-.32-.18s0-.14.16-.14a2.26,2.26,0,0,0,.58-.09c.4-.09.5-.57.58-1.21.09-.94.09-2.69.09-4.82v-9.37l-2.9.05c-1.22,0-1.69.18-2,.71a3.33,3.33,0,0,0-.34.69c-.06.17-.11.21-.21.21s-.08-.06-.08-.2.39-2.12.43-2.3.12-.42.2-.42a3.36,3.36,0,0,0,.86.27c.57.07,1.32.1,1.55.1h7.36a7,7,0,0,0,1.4-.1c.29,0,.46-.12.54-.12s.11.14.11.27c0,.67-.06,2.2-.06,2.44s-.07.28-.14.28-.15-.06-.16-.37l0-.25c0-.65-.54-1.17-2.42-1.21l-2.47-.05Z"></path>
      <path class="cls-2" d="M124.2,120.14a5.36,5.36,0,0,0-.45-2.34c-.13-.35-2.77-5.22-3.45-6.37a5.92,5.92,0,0,0-1.34-1.64,1.73,1.73,0,0,0-.85-.36c-.1,0-.2-.05-.2-.16s.09-.15.26-.15c.38,0,1.85.06,2,.06s.88-.06,1.65-.06c.21,0,.25.06.25.15s-.12.11-.3.21a.45.45,0,0,0-.25.39,2.24,2.24,0,0,0,.25.87c.32.65,3.27,6.36,3.62,7,.37-.92,2.86-5.78,3.26-6.5a2.41,2.41,0,0,0,.32-1.14c0-.3-.07-.55-.3-.61s-.29-.11-.29-.23.11-.13.3-.13c.52,0,1.15.06,1.3.06s1.54-.06,1.9-.06c.15,0,.25,0,.25.13s-.09.18-.25.18a1.7,1.7,0,0,0-.89.31,4,4,0,0,0-1.05,1.12,73.77,73.77,0,0,0-3.75,7.06,5.81,5.81,0,0,0-.3,2.22v1.91c0,.35,0,1.27.06,2.21,0,.64.22,1.12.8,1.21a7,7,0,0,0,.9.09.13.13,0,0,1,.15.14c0,.11-.09.18-.31.18-1.08,0-2.32-.07-2.42-.07s-1.33.07-1.92.07c-.22,0-.32,0-.32-.18a.14.14,0,0,1,.16-.14,2.49,2.49,0,0,0,.6-.09c.38-.09.56-.57.6-1.21.06-.94.06-1.86.06-2.21Z"></path>
      <path class="cls-2" d="M35,140.18v-.93a1.43,1.43,0,0,1,1.05-.48,2.69,2.69,0,0,1,.4,0,6.79,6.79,0,0,1,.67.25,2.1,2.1,0,0,0,.65.19,1,1,0,0,0,.45-.11,1.78,1.78,0,0,0,.51-.39v1a2.19,2.19,0,0,1-.45.33,1.43,1.43,0,0,1-.61.14,1.24,1.24,0,0,1-.33,0,3.94,3.94,0,0,1-.53-.21,2.46,2.46,0,0,0-.85-.23,1.34,1.34,0,0,0-1,.49"></path>
      <path class="cls-2" d="M47.85,142h-1v-3.79a3.2,3.2,0,0,1-1.27.76v-.9a3.13,3.13,0,0,0,.84-.49,2,2,0,0,0,.62-.84h.8Z"></path>
      <path class="cls-2" d="M57.65,140.82l1-.1a.66.66,0,0,0,.18.43.52.52,0,0,0,.38.15.6.6,0,0,0,.52-.28,2.42,2.42,0,0,0,.28-1.19,1.17,1.17,0,0,1-.93.44,1.43,1.43,0,0,1-1.06-.48,1.86,1.86,0,0,1-.43-1.24,1.75,1.75,0,0,1,.47-1.28,1.56,1.56,0,0,1,1.19-.49,1.59,1.59,0,0,1,1.28.6,3.3,3.3,0,0,1,.51,2,3.25,3.25,0,0,1-.53,2.08,1.66,1.66,0,0,1-1.36.64,1.4,1.4,0,0,1-1-.33,1.65,1.65,0,0,1-.48-1m2.23-2.19a1.25,1.25,0,0,0-.21-.76.67.67,0,0,0-.52-.27.57.57,0,0,0-.45.23,1.18,1.18,0,0,0-.18.72,1.15,1.15,0,0,0,.2.74.6.6,0,0,0,.49.24.58.58,0,0,0,.47-.23.93.93,0,0,0,.2-.67"></path>
      <path class="cls-2" d="M71.34,139.21a1.25,1.25,0,0,1-.55-.44,1.33,1.33,0,0,1-.17-.64,1.28,1.28,0,0,1,.4-1,1.6,1.6,0,0,1,1.14-.38,1.63,1.63,0,0,1,1.14.38,1.33,1.33,0,0,1,.41,1,1.15,1.15,0,0,1-.71,1.08,1.45,1.45,0,0,1,.65.51,1.54,1.54,0,0,1,.22.77,1.56,1.56,0,0,1-1.67,1.64,1.79,1.79,0,0,1-1.16-.37,1.49,1.49,0,0,1-.55-1.22,1.68,1.68,0,0,1,.2-.79,1.41,1.41,0,0,1,.65-.54m.12,1.23a1,1,0,0,0,.2.65.67.67,0,0,0,.52.24.65.65,0,0,0,.51-.23.9.9,0,0,0,.21-.64.83.83,0,0,0-.21-.59.65.65,0,0,0-.52-.23.61.61,0,0,0-.54.25,1,1,0,0,0-.17.55m.09-2.24a.7.7,0,0,0,.16.47.62.62,0,0,0,.45.16.58.58,0,0,0,.44-.16.64.64,0,0,0,.18-.47.58.58,0,0,0-.18-.45.52.52,0,0,0-.43-.18.62.62,0,0,0-.46.18.65.65,0,0,0-.16.45"></path>
      <path class="cls-2" d="M82.78,140.82l1-.1a.62.62,0,0,0,.18.43.51.51,0,0,0,.39.15.6.6,0,0,0,.51-.28,2.54,2.54,0,0,0,.28-1.19,1.18,1.18,0,0,1-.93.44,1.38,1.38,0,0,1-1-.48,1.73,1.73,0,0,1-.44-1.24,1.75,1.75,0,0,1,.46-1.28,1.54,1.54,0,0,1,1.18-.49,1.61,1.61,0,0,1,1.29.6,3.31,3.31,0,0,1,.5,2,3.25,3.25,0,0,1-.53,2.08,1.64,1.64,0,0,1-1.35.64,1.42,1.42,0,0,1-1-.33,1.55,1.55,0,0,1-.48-1M85,138.63a1.25,1.25,0,0,0-.23-.76.65.65,0,0,0-.5-.27.58.58,0,0,0-.46.23,1.11,1.11,0,0,0-.18.72,1.15,1.15,0,0,0,.2.74.6.6,0,0,0,.49.24.63.63,0,0,0,.48-.23,1,1,0,0,0,.2-.67"></path>
      <path class="cls-2" d="M93,140.18v-.93a1.38,1.38,0,0,1,1-.48,2.63,2.63,0,0,1,.41,0c.12,0,.34.12.67.25a2.1,2.1,0,0,0,.65.19,1.16,1.16,0,0,0,.46-.11,1.68,1.68,0,0,0,.48-.39v1a1.86,1.86,0,0,1-.44.33,1.35,1.35,0,0,1-.59.14,1.39,1.39,0,0,1-.35,0,4,4,0,0,1-.52-.21,2.41,2.41,0,0,0-.85-.23,1.29,1.29,0,0,0-1,.49"></path>
    </g>
  </g>
</svg>
