<?xml version="1.0" encoding="utf-8"?>
<!-- Generator: Adobe Illustrator 21.1.0, SVG Export Plug-In . SVG Version: 6.00 Build 0)  -->
<svg version="1.1" id="Layer_1" xmlns="http://www.w3.org/2000/svg" xmlns:xlink="http://www.w3.org/1999/xlink" x="0px" y="0px"
	 viewBox="0 0 263.7 60.8" style="enable-background:new 0 0 263.7 60.8;" xml:space="preserve">
<style type="text/css">
	.st0{fill:#C84727;}
	.st1{fill:none;}
	.st2{fill:#606060;}
</style>
<path class="st0" d="M62.9,30c0-5.9-4.4-10.9-10.1-11.8c2.1-5.4,0-11.6-5.1-14.6c-5.1-3-11.6-1.6-15.2,2.8C28.8,2,22.4,0.6,17.2,3.6
	c-5.1,3-7.2,9.2-5.1,14.6C6.4,19.1,2,24,2,29.9c0,3.2,1.2,6.2,3.5,8.4c1.8,1.8,4.1,3,6.6,3.3c-0.9,2.3-1.1,4.9-0.4,7.4
	c0.8,3.1,2.8,5.6,5.5,7.2c1.8,1.1,3.9,1.6,5.9,1.6c1,0,2.1-0.1,3.1-0.4c2.5-0.7,4.6-2.1,6.2-4.1c1.6,2,3.7,3.4,6.2,4.1
	c1,0.3,2.1,0.4,3.1,0.4c2.1,0,4.1-0.5,5.9-1.6c2.8-1.6,4.7-4.2,5.5-7.2c0.7-2.5,0.5-5-0.4-7.4c2.5-0.4,4.8-1.5,6.6-3.3
	C61.6,36.1,62.9,33.2,62.9,30z M49.8,40l-16.2,9.3V30.6l16.2-9.3V40z M32.4,9.9l16.1,9.3l-16.1,9.3l-16.1-9.3L32.4,9.9z M15.1,21.3
	l16.1,9.3v18.7L15.1,40V21.3z M46.5,5.7c4.2,2.4,5.8,7.5,4,11.9L34.2,8.2C37,4.4,42.3,3.3,46.5,5.7z M18.4,5.7
	c4.2-2.4,9.4-1.3,12.3,2.5l-16.3,9.4C12.6,13.2,14.2,8.1,18.4,5.7z M4.4,29.9c0-4.8,3.6-8.8,8.3-9.4v18.8c-2.1-0.3-4-1.2-5.5-2.7
	C5.4,34.9,4.4,32.5,4.4,29.9z M25.6,55.2c-2.5,0.7-5,0.3-7.2-0.9c-2.2-1.3-3.8-3.3-4.4-5.8c-0.5-2-0.4-4.2,0.4-6.1l16.3,9.4
	C29.4,53.4,27.7,54.6,25.6,55.2z M46.5,54.2c-2.2,1.3-4.8,1.6-7.2,0.9c-2.1-0.6-3.8-1.8-5.1-3.4l16.3-9.4
	C52.3,46.7,50.7,51.8,46.5,54.2z M52.2,39.4V20.6c4.7,0.6,8.3,4.6,8.3,9.4c0,2.5-1,4.9-2.8,6.7C56.2,38.2,54.3,39.1,52.2,39.4z"/>
<polygon class="st1" points="32.4,51.4 32.4,29.9 32.4,30 13.9,19.2 13.9,19.3 13.9,40.7 13.9,40.6 32.4,51.4 "/>
<polygon class="st1" points="32.4,51.4 32.4,30 32.4,30 51,19.3 51,19.3 51,40.7 51,40.7 32.4,51.4 "/>
<g>
	<polygon class="st1" points="32.4,8.5 32.4,8.5 32.4,8.5 	"/>
	<polygon class="st1" points="32.4,30 32.4,30 32.4,30 	"/>
	<polygon class="st1" points="51,19.2 32.4,8.5 13.9,19.2 13.9,19.3 32.4,30 51,19.3 	"/>
</g>
<g>
	<path d="M90.5,22.7h-2.3l-0.6-3.4c-0.5-0.5-1.2-0.9-2-1.3c-0.8-0.3-1.7-0.5-2.8-0.5c-2.5,0-4.4,0.9-5.8,2.7c-1.3,1.8-2,4.1-2,6.9
		v0.4c0,2.8,0.7,5.1,2,6.9c1.3,1.8,3.1,2.7,5.5,2.7c1.1,0,2.1-0.2,3-0.5s1.6-0.8,2.1-1.3l0.6-3.4h2.3v4.3c-0.7,0.9-1.7,1.7-3.1,2.4
		c-1.4,0.7-3,1-4.8,1c-3.1,0-5.7-1.2-7.7-3.5s-3-5.2-3-8.7v-0.3c0-3.5,1-6.4,3-8.8s4.6-3.5,7.8-3.5c1.8,0,3.4,0.4,4.8,1.1
		c1.4,0.7,2.4,1.5,3.1,2.4V22.7z"/>
	<path d="M93.5,15.7v-2.1h6v23.2l2.7,0.5v2.1h-8.6v-2.1l2.7-0.5V16.2L93.5,15.7z"/>
	<path d="M104.3,30.3c0-2.6,0.7-4.8,2.1-6.5s3.4-2.6,5.8-2.6c2.5,0,4.4,0.9,5.9,2.6c1.4,1.7,2.2,3.9,2.2,6.5v0.4
		c0,2.7-0.7,4.8-2.1,6.5s-3.4,2.5-5.8,2.5c-2.5,0-4.4-0.9-5.9-2.6c-1.4-1.7-2.1-3.9-2.1-6.5V30.3z M107.5,30.6
		c0,1.9,0.4,3.5,1.2,4.7c0.8,1.2,2,1.9,3.6,1.9c1.5,0,2.7-0.6,3.5-1.9s1.2-2.8,1.2-4.7v-0.4c0-1.9-0.4-3.4-1.2-4.7
		c-0.8-1.2-2-1.9-3.6-1.9c-1.6,0-2.7,0.6-3.5,1.9c-0.8,1.2-1.2,2.8-1.2,4.7V30.6z"/>
	<path d="M136.1,36.7c-0.6,1-1.3,1.7-2.2,2.2c-0.9,0.5-1.9,0.8-3.1,0.8c-1.9,0-3.5-0.6-4.5-1.9c-1.1-1.2-1.6-3.2-1.6-5.8v-8l-2-0.5
		v-2.1h2h3.3v10.6c0,1.9,0.3,3.2,0.8,3.9c0.6,0.7,1.4,1.1,2.6,1.1c1.2,0,2.1-0.2,2.9-0.7c0.8-0.5,1.3-1.1,1.7-2V24.1l-2.4-0.5v-2.1
		h2.4h3.3v15.3l2,0.5v2.1h-5L136.1,36.7z"/>
	<path d="M155.9,37.3c-0.6,0.8-1.3,1.4-2.1,1.9c-0.8,0.4-1.8,0.6-2.9,0.6c-2.2,0-3.9-0.8-5.1-2.4c-1.2-1.6-1.8-3.7-1.8-6.2v-0.3
		c0-2.9,0.6-5.2,1.8-7c1.2-1.8,2.9-2.6,5.1-2.6c1.1,0,2,0.2,2.8,0.6c0.8,0.4,1.5,1,2.1,1.7v-7.3l-2.7-0.5v-2.1h2.7h3.3v23.2l2.7,0.5
		v2.1h-5.5L155.9,37.3z M147.1,31.1c0,1.8,0.4,3.2,1.1,4.3s1.9,1.6,3.4,1.6c1,0,1.8-0.2,2.4-0.7s1.2-1.1,1.6-1.9v-8.3
		c-0.4-0.7-1-1.3-1.6-1.8c-0.7-0.4-1.5-0.7-2.4-0.7c-1.6,0-2.7,0.6-3.4,1.9c-0.7,1.3-1.1,3-1.1,5V31.1z"/>
	<path class="st2" d="M163.6,37.3l1.8-0.2l8.4-21.7h2.8l8.3,21.7l1.8,0.2v2.1h-6.9v-2.1l1.8-0.3l-1.6-4.4h-9.6l-1.6,4.4l1.8,0.3v2.1
		h-6.9V37.3z M171.3,29.8h7.6l-3.7-10.3h-0.1L171.3,29.8z"/>
	<path class="st2" d="M188.6,23.9v-2.4h2.8v-2.3c0-1.9,0.5-3.4,1.5-4.4c1-1,2.4-1.6,4.2-1.6c0.4,0,0.8,0,1.1,0.1
		c0.4,0.1,0.8,0.1,1.3,0.3l-0.4,2.5c-0.2,0-0.4-0.1-0.7-0.1s-0.6,0-0.9,0c-1,0-1.7,0.3-2.1,0.9c-0.5,0.6-0.7,1.4-0.7,2.5v2.3h3.7
		v2.4h-3.7v12.9l2.7,0.5v2.1h-8.6v-2.1l2.7-0.5V23.9H188.6z"/>
	<path class="st2" d="M201,23.6v-2.1h5.6l0.3,2.6c0.5-0.9,1.1-1.6,1.9-2.1c0.7-0.5,1.6-0.8,2.6-0.8c0.3,0,0.5,0,0.8,0.1
		c0.3,0,0.5,0.1,0.6,0.1l-0.4,3l-1.9-0.1c-0.9,0-1.6,0.2-2.2,0.6c-0.6,0.4-1,1-1.4,1.7v10.3l2.7,0.5v2.1H201v-2.1l2.7-0.5V24.1
		L201,23.6z"/>
	<path class="st2" d="M215,37.3l2.7-0.5V24.1l-2.7-0.5v-2.1h6v15.3l2.7,0.5v2.1H215V37.3z M220.9,16.9h-3.3v-3.3h3.3V16.9z"/>
	<path class="st2" d="M234.1,37.2c1.1,0,2-0.3,2.9-1c0.8-0.7,1.2-1.5,1.2-2.5h2.9l0,0.1c0.1,1.5-0.6,2.9-2.1,4.1
		c-1.4,1.2-3.1,1.8-5,1.8c-2.6,0-4.6-0.8-6-2.5s-2.1-3.8-2.1-6.4v-0.7c0-2.5,0.7-4.7,2.1-6.4c1.4-1.7,3.4-2.6,6-2.6
		c1.4,0,2.7,0.2,3.9,0.7c1.1,0.5,2.1,1.1,2.8,2l0.1,4h-2.6l-0.7-2.8c-0.4-0.4-0.9-0.7-1.5-0.9c-0.6-0.2-1.3-0.3-2.1-0.3
		c-1.7,0-2.9,0.6-3.7,1.8c-0.7,1.2-1.1,2.7-1.1,4.5v0.7c0,1.8,0.4,3.4,1.1,4.6C231.2,36.6,232.4,37.2,234.1,37.2z"/>
	<path class="st2" d="M256,39.4c-0.1-0.5-0.2-0.9-0.2-1.3c-0.1-0.4-0.1-0.8-0.1-1.2c-0.6,0.8-1.4,1.5-2.4,2c-0.9,0.5-1.9,0.8-3,0.8
		c-1.9,0-3.3-0.5-4.2-1.4s-1.5-2.2-1.5-3.8c0-1.7,0.7-3,2.1-3.9s3.3-1.4,5.6-1.4h3.4v-2.1c0-1-0.3-1.9-1-2.5
		c-0.7-0.6-1.6-0.9-2.8-0.9c-0.8,0-1.5,0.1-2.2,0.3c-0.6,0.2-1.1,0.5-1.5,0.9l-0.3,1.9h-2.5v-3.5c0.8-0.7,1.8-1.2,3-1.6
		c1.2-0.4,2.4-0.6,3.8-0.6c2,0,3.7,0.5,4.9,1.6c1.3,1,1.9,2.5,1.9,4.4v8.6c0,0.2,0,0.5,0,0.7c0,0.2,0,0.4,0,0.7l1.3,0.2v2.1H256z
		 M250.8,37c1.1,0,2.1-0.3,3-0.8c0.9-0.5,1.5-1.1,1.9-1.9v-2.9h-3.5c-1.3,0-2.4,0.3-3.2,0.9c-0.8,0.6-1.2,1.4-1.2,2.2
		c0,0.8,0.2,1.4,0.7,1.8C249.1,36.8,249.8,37,250.8,37z"/>
</g>
</svg>
